<svg height="512pt" viewBox="0 0 512 512" width="512pt" xmlns="http://www.w3.org/2000/svg"><path d="m502 230v40h-40v-40zm0 0" fill="#4dbbeb"/><path d="m482 10c11.050781 0 20 8.949219 20 20s-8.949219 20-20 20-20-8.949219-20-20 8.949219-20 20-20zm0 0" fill="#4dbbeb"/><path d="m283.5 160.324219-72.5 132.675781 40 106h65l40-106zm0 0" fill="#e2e2e2"/><path d="m336 419c0-11.050781-8.949219-20-20-20h-58c-5.519531 0-10.519531 2.238281-14.140625 5.859375s-5.859375 8.621094-5.859375 14.140625c0 11.050781 8.949219 20 20 20h58c5.519531 0 10.519531-2.238281 14.140625-5.859375s5.859375-8.621094 5.859375-14.140625zm0 0" fill="#feb756"/><g fill="#4dbbeb"><path d="m248 439h68v63h-68zm0 0"/><path d="m276 30.898438v19.101562h-40v-40h40zm0 0"/><path d="m256 273c11.050781 0 20 8.949219 20 20s-8.949219 20-20 20-20-8.949219-20-20 8.949219-20 20-20zm0 0"/><path d="m50 230v40h-40v-40zm0 0"/><path d="m30 10c11.050781 0 20 8.949219 20 20s-8.949219 20-20 20-20-8.949219-20-20 8.949219-20 20-20zm0 0"/></g><path d="m502 220h-11.960938c-3.738281-28.804688-12.769531-56.253906-26.941406-81.703125-2.6875-4.824219-8.777344-6.5625-13.605468-3.875-4.824219 2.6875-6.558594 8.777344-3.871094 13.601563 12.507812 22.464843 20.648437 46.628906 24.253906 71.976562h-7.875c-5.523438 0-10 4.476562-10 10v40c0 5.523438 4.476562 10 10 10h40c5.523438 0 10-4.476562 10-10v-40c0-5.523438-4.476562-10-10-10zm-10 40h-20v-20h9.078125.011719.007812 10.902344zm0 0"/><path d="m365.980469 292.621094c-.003907-.15625-.007813-.308594-.023438-.464844-.015625-.210938-.046875-.421875-.078125-.628906-.019531-.128906-.03125-.257813-.058594-.382813-.046874-.246093-.105468-.488281-.167968-.726562-.023438-.089844-.042969-.179688-.070313-.269531-.089843-.300782-.191406-.59375-.308593-.878907-.011719-.03125-.023438-.066406-.035157-.097656-.136719-.332031-.292969-.65625-.464843-.972656l-100-182.996094c-1.75-3.207031-5.117188-5.203125-8.773438-5.203125s-7.023438 1.996094-8.773438 5.203125l-100 182.996094c-.171874.316406-.328124.640625-.464843.976562-.011719.027344-.023438.0625-.035157.09375-.117187.285157-.21875.578125-.308593.878907-.027344.089843-.046875.179687-.070313.273437-.0625.238281-.121094.476563-.167968.722656-.023438.125-.039063.253907-.058594.382813-.03125.207031-.0625.417968-.078125.628906-.015625.15625-.019531.3125-.023438.464844-.003906.125-.019531.25-.019531.378906 0 .066406.007812.128906.011719.195312 0 .15625.011719.3125.023437.46875.011719.199219.027344.398438.054688.59375.015625.136719.039062.273438.0625.414063.035156.214844.078125.429687.128906.640625.027344.117188.058594.238281.089844.355469.0625.226562.136718.453125.214844.671875.019531.0625.035156.128906.058593.191406l36.066407 95.570312c-2.894532 1.433594-5.570313 3.335938-7.921876 5.6875-5.667968 5.667969-8.789062 13.199219-8.789062 21.210938 0 13.035156 8.359375 24.152344 20 28.28125v54.71875c0 5.523438 4.476562 10 10 10h120c5.523438 0 10-4.476562 10-10v-54.703125c4.167969-1.472656 7.992188-3.867187 11.210938-7.085937 5.667968-5.667969 8.789062-13.199219 8.789062-21.210938 0-11.773438-6.820312-21.976562-16.714844-26.886719l36.070313-95.582031c.023437-.0625.039062-.128906.058593-.191406.078126-.21875.152344-.445313.214844-.671875.03125-.117188.0625-.238281.09375-.355469.046875-.210938.089844-.425781.128906-.640625.019532-.140625.042969-.277344.0625-.414063.023438-.195312.039063-.394531.054688-.59375.007812-.15625.019531-.3125.023438-.46875 0-.066406.007812-.128906.007812-.195312 0-.128906-.015625-.253906-.019531-.378906zm-49.980469 10.378906h25.539062l-32.453124 86h-106.171876l-32.453124-86h25.539062c5.523438 0 10-4.476562 10-10s-4.476562-10-10-10h-23.140625l73.140625-133.847656v115.566406c-11.640625 4.128906-20 15.246094-20 28.28125 0 16.542969 13.457031 30 30 30s30-13.457031 30-30c0-13.035156-8.359375-24.152344-20-28.28125v-115.566406l73.140625 133.847656h-23.140625c-5.523438 0-10 4.476562-10 10s4.476562 10 10 10zm-60-20c5.515625 0 10 4.484375 10 10s-4.484375 10-10 10-10-4.484375-10-10 4.484375-10 10-10zm-50 209v-43h100v43zm117.070312-65.933594c-1.890624 1.894532-4.402343 2.933594-7.070312 2.933594h-120c-5.515625 0-10-4.484375-10-10 0-2.667969 1.039062-5.179688 2.929688-7.066406 1.890624-1.894532 4.402343-2.933594 7.070312-2.933594h119.933594c.019531 0 .042968.003906.066406.003906h.03125c5.5.015625 9.96875 4.492188 9.96875 9.996094 0 2.667969-1.039062 5.179688-2.929688 7.066406zm0 0"/><path d="m62.503906 134.421875c-4.824218-2.6875-10.914062-.953125-13.601562 3.875-14.171875 25.449219-23.207032 52.898437-26.941406 81.703125h-11.960938c-5.523438 0-10 4.476562-10 10v40c0 5.523438 4.476562 10 10 10h40c5.523438 0 10-4.476562 10-10v-40c0-5.523438-4.476562-10-10-10h-7.875c3.605469-25.347656 11.742188-49.511719 24.253906-71.976562 2.683594-4.824219.953125-10.914063-3.875-13.601563zm-22.503906 125.578125h-20v-20h10.902344.007812.011719 9.078125zm0 0"/><path d="m410.175781 74.085938c-16.101562-13.574219-35.660156-25.160157-56.988281-34.085938h100.53125c4.128906 11.640625 15.246094 20 28.28125 20 16.542969 0 30-13.457031 30-30s-13.457031-30-30-30c-13.035156 0-24.152344 8.359375-28.28125 20h-167.71875v-10c0-5.523438-4.476562-10-10-10h-40c-5.523438 0-10 4.476562-10 10v10h-167.71875c-4.128906-11.640625-15.246094-20-28.28125-20-16.542969 0-30 13.457031-30 30s13.457031 30 30 30c13.035156 0 24.152344-8.359375 28.28125-20h100.53125c-21.328125 8.925781-40.886719 20.511719-56.988281 34.085938-4.222657 3.558593-4.757813 9.867187-1.199219 14.089843 1.976562 2.347657 4.804688 3.554688 7.648438 3.554688 2.277343 0 4.566406-.773438 6.441406-2.355469 28.691406-24.1875 69.636718-41.460938 111.285156-47.257812v7.882812c0 5.523438 4.476562 10 10 10h40c5.523438 0 10-4.476562 10-10v-7.882812c41.648438 5.796874 82.59375 23.070312 111.285156 47.257812 1.875 1.582031 4.164063 2.355469 6.441406 2.355469 2.84375 0 5.671876-1.210938 7.648438-3.554688 3.5625-4.222656 3.023438-10.53125-1.199219-14.089843zm71.824219-54.085938c5.515625 0 10 4.484375 10 10s-4.484375 10-10 10-10-4.484375-10-10 4.484375-10 10-10zm-452 20c-5.515625 0-10-4.484375-10-10s4.484375-10 10-10 10 4.484375 10 10-4.484375 10-10 10zm236 0h-20v-20h20zm0 0"/><path d="m432 100c-5.519531 0-10 4.480469-10 10s4.480469 10 10 10 10-4.480469 10-10-4.480469-10-10-10zm0 0"/><path d="m80 100c-5.519531 0-10 4.480469-10 10s4.480469 10 10 10 10-4.480469 10-10-4.480469-10-10-10zm0 0"/></svg>